<?xml version="1.0" encoding="UTF-8"?>
<svg xmlns="http://www.w3.org/2000/svg" viewBox="0 0 1280 640" width="1280" height="640" role="img" aria-label="ssh-wrappers — nine small POSIX shell wrappers around ssh">
  <defs>
    <linearGradient id="bg" x1="0" y1="0" x2="1" y2="1">
      <stop offset="0" stop-color="#0a0e1a"/>
      <stop offset="1" stop-color="#1e1b4b"/>
    </linearGradient>
    <linearGradient id="brand" x1="0" y1="0" x2="1" y2="1">
      <stop offset="0" stop-color="#6366f1"/>
      <stop offset="1" stop-color="#a78bfa"/>
    </linearGradient>
    <linearGradient id="title" x1="0" y1="0" x2="1" y2="0">
      <stop offset="0" stop-color="#ffffff"/>
      <stop offset="1" stop-color="#a78bfa"/>
    </linearGradient>
    <radialGradient id="glow" cx="0.18" cy="0.32" r="0.45">
      <stop offset="0" stop-color="#6366f1" stop-opacity="0.35"/>
      <stop offset="1" stop-color="#6366f1" stop-opacity="0"/>
    </radialGradient>
    <pattern id="dots" x="0" y="0" width="32" height="32" patternUnits="userSpaceOnUse">
      <circle cx="1.5" cy="1.5" r="1.5" fill="#ffffff" opacity="0.05"/>
    </pattern>
    <filter id="shadow" x="-20%" y="-20%" width="140%" height="140%">
      <feGaussianBlur stdDeviation="6" result="b"/>
      <feOffset dx="0" dy="8" in="b" result="o"/>
      <feComponentTransfer in="o" result="t">
        <feFuncA type="linear" slope="0.5"/>
      </feComponentTransfer>
      <feMerge>
        <feMergeNode in="t"/>
        <feMergeNode in="SourceGraphic"/>
      </feMerge>
    </filter>
  </defs>

  <rect width="1280" height="640" fill="url(#bg)"/>
  <rect width="1280" height="640" fill="url(#dots)"/>
  <rect width="1280" height="640" fill="url(#glow)"/>

  <!-- accent bar -->
  <rect x="0" y="0" width="6" height="640" fill="url(#brand)"/>

  <!-- logo mark -->
  <g transform="translate(72, 80)" filter="url(#shadow)">
    <rect width="148" height="148" rx="34" fill="url(#brand)"/>
    <g fill="none" stroke="#ffffff" stroke-width="12" stroke-linecap="round" stroke-linejoin="round">
      <path d="M44 52 L72 74 L44 96"/>
      <path d="M82 96 L114 96"/>
    </g>
  </g>

  <!-- title -->
  <text x="248" y="148" font-family="ui-monospace, SF Mono, Menlo, Consolas, monospace" font-size="84" font-weight="700" fill="url(#title)" letter-spacing="-2">ssh-wrappers</text>

  <!-- "9 wrappers" badge -->
  <g transform="translate(248, 168)">
    <rect x="0" y="0" width="118" height="30" rx="15" fill="#312e81" stroke="#6366f1" stroke-width="1"/>
    <text x="59" y="20" font-family="ui-monospace, SF Mono, Menlo, monospace" font-size="14" font-weight="600" fill="#a78bfa" text-anchor="middle">9 wrappers</text>
  </g>

  <!-- tagline -->
  <text x="248" y="232" font-family="-apple-system, Segoe UI, system-ui, sans-serif" font-size="22" font-weight="400" fill="#cbd5e1">Small POSIX shell wrappers around <tspan font-family="ui-monospace, SF Mono, Menlo, monospace" fill="#a78bfa">ssh</tspan> that fix the most common annoyances.</text>

  <!-- 3x3 chip grid -->
  <!-- chip dimensions: 360 wide, 56 tall, gap 14, cols start at x=72 -->
  <g font-family="-apple-system, Segoe UI, system-ui, sans-serif">
    <!-- Row 1 -->
    <g transform="translate(72, 282)">
      <rect width="360" height="56" rx="12" fill="#111827" stroke="#334155" stroke-width="1"/>
      <circle cx="32" cy="28" r="14" fill="#312e81"/>
      <g transform="translate(24, 20)" fill="none" stroke="#a78bfa" stroke-width="2.4" stroke-linecap="round" stroke-linejoin="round">
        <rect x="2" y="7" width="12" height="9" rx="1.6"/>
        <path d="M5 7V4.5a3 3 0 1 1 6 0V7"/>
      </g>
      <text x="60" y="26" font-family="ui-monospace, SF Mono, Menlo, monospace" font-size="18" font-weight="700" fill="#f1f5f9">sshp</text>
      <text x="60" y="44" font-size="13" fill="#94a3b8">force password auth</text>
    </g>
    <g transform="translate(446, 282)">
      <rect width="360" height="56" rx="12" fill="#111827" stroke="#334155" stroke-width="1"/>
      <circle cx="32" cy="28" r="14" fill="#312e81"/>
      <g transform="translate(24, 20)" fill="none" stroke="#a78bfa" stroke-width="2.4" stroke-linecap="round" stroke-linejoin="round">
        <circle cx="5.5" cy="11" r="2.6"/>
        <path d="M7.5 9l6.5-6.5M11 4l2.4 2.4M9 6l2.4 2.4"/>
      </g>
      <text x="60" y="26" font-family="ui-monospace, SF Mono, Menlo, monospace" font-size="18" font-weight="700" fill="#f1f5f9">sshi</text>
      <text x="60" y="44" font-size="13" fill="#94a3b8">explicit identities only</text>
    </g>
    <g transform="translate(820, 282)">
      <rect width="360" height="56" rx="12" fill="#111827" stroke="#334155" stroke-width="1"/>
      <circle cx="32" cy="28" r="14" fill="#312e81"/>
      <g transform="translate(24, 20)" fill="none" stroke="#a78bfa" stroke-width="2.2" stroke-linecap="round" stroke-linejoin="round">
        <circle cx="4" cy="8" r="1.8"/>
        <circle cx="13" cy="3" r="1.8"/>
        <circle cx="13" cy="13" r="1.8"/>
        <path d="M5.5 7l6-3.2M5.5 9l6 3.2"/>
      </g>
      <text x="60" y="26" font-family="ui-monospace, SF Mono, Menlo, monospace" font-size="18" font-weight="700" fill="#f1f5f9">ssha</text>
      <text x="60" y="44" font-size="13" fill="#94a3b8">forward your ssh-agent</text>
    </g>

    <!-- Row 2 -->
    <g transform="translate(72, 352)">
      <rect width="360" height="56" rx="12" fill="#111827" stroke="#334155" stroke-width="1"/>
      <circle cx="32" cy="28" r="14" fill="#312e81"/>
      <g transform="translate(24, 20)" fill="none" stroke="#a78bfa" stroke-width="2.4" stroke-linecap="round" stroke-linejoin="round">
        <path d="M9 1.5L3 10h4.5l-1 6 7.5-9h-5z"/>
      </g>
      <text x="60" y="26" font-family="ui-monospace, SF Mono, Menlo, monospace" font-size="18" font-weight="700" fill="#f1f5f9">sshq</text>
      <text x="60" y="44" font-size="13" fill="#94a3b8">quick, skip host key checks</text>
    </g>
    <g transform="translate(446, 352)">
      <rect width="360" height="56" rx="12" fill="#111827" stroke="#334155" stroke-width="1"/>
      <circle cx="32" cy="28" r="14" fill="#312e81"/>
      <g transform="translate(24, 20)" fill="none" stroke="#a78bfa" stroke-width="2.4" stroke-linecap="round" stroke-linejoin="round">
        <path d="M1 9h3l1.5-5L9 14l1.5-5h4.5"/>
      </g>
      <text x="60" y="26" font-family="ui-monospace, SF Mono, Menlo, monospace" font-size="18" font-weight="700" fill="#f1f5f9">sshk</text>
      <text x="60" y="44" font-size="13" fill="#94a3b8">keepalive on idle sessions</text>
    </g>
    <g transform="translate(820, 352)">
      <rect width="360" height="56" rx="12" fill="#111827" stroke="#334155" stroke-width="1"/>
      <circle cx="32" cy="28" r="14" fill="#312e81"/>
      <g transform="translate(24, 20)" fill="none" stroke="#a78bfa" stroke-width="2.2" stroke-linecap="round" stroke-linejoin="round">
        <path d="M8 1.5l6.5 3.5L8 8.5 1.5 5z"/>
        <path d="M1.5 8.5L8 12l6.5-3.5"/>
        <path d="M1.5 12L8 15.5 14.5 12"/>
      </g>
      <text x="60" y="26" font-family="ui-monospace, SF Mono, Menlo, monospace" font-size="18" font-weight="700" fill="#f1f5f9">sshm</text>
      <text x="60" y="44" font-size="13" fill="#94a3b8">multiplex, instant reconnects</text>
    </g>

    <!-- Row 3 -->
    <g transform="translate(72, 422)">
      <rect width="360" height="56" rx="12" fill="#111827" stroke="#334155" stroke-width="1"/>
      <circle cx="32" cy="28" r="14" fill="#312e81"/>
      <g transform="translate(24, 20)" fill="none" stroke="#a78bfa" stroke-width="2.4" stroke-linecap="round" stroke-linejoin="round">
        <path d="M2.5 13l4.5-4.5L2.5 4M8.5 14h6"/>
      </g>
      <text x="60" y="26" font-family="ui-monospace, SF Mono, Menlo, monospace" font-size="18" font-weight="700" fill="#f1f5f9">ssht</text>
      <text x="60" y="44" font-size="13" fill="#94a3b8">force a TTY (sudo, htop, vim)</text>
    </g>
    <g transform="translate(446, 422)">
      <rect width="360" height="56" rx="12" fill="#111827" stroke="#334155" stroke-width="1"/>
      <circle cx="32" cy="28" r="14" fill="#312e81"/>
      <g transform="translate(24, 20)" fill="none" stroke="#a78bfa" stroke-width="2.2" stroke-linecap="round" stroke-linejoin="round">
        <path d="M14 5.5L8 2.5 2 5.5v6l6 3.5 6-3.5z"/>
        <path d="M2 5.5L8 9l6-3.5M8 9v6"/>
      </g>
      <text x="60" y="26" font-family="ui-monospace, SF Mono, Menlo, monospace" font-size="18" font-weight="700" fill="#f1f5f9">sshc</text>
      <text x="60" y="44" font-size="13" fill="#94a3b8">compression for slow links</text>
    </g>
    <g transform="translate(820, 422)">
      <rect width="360" height="56" rx="12" fill="#111827" stroke="#334155" stroke-width="1"/>
      <circle cx="32" cy="28" r="14" fill="#312e81"/>
      <g transform="translate(24, 20)" fill="none" stroke="#a78bfa" stroke-width="2.2" stroke-linecap="round" stroke-linejoin="round">
        <rect x="4" y="5" width="8" height="9.5" rx="4"/>
        <path d="M8 5V3M5.5 3l-1.5-1.5M10.5 3l1.5-1.5M3 8.5H1.5M14.5 8.5H13"/>
      </g>
      <text x="60" y="26" font-family="ui-monospace, SF Mono, Menlo, monospace" font-size="18" font-weight="700" fill="#f1f5f9">sshv</text>
      <text x="60" y="44" font-size="13" fill="#94a3b8">verbose debug (-vvv)</text>
    </g>
  </g>

  <!-- install command -->
  <g transform="translate(72, 510)">
    <rect width="1136" height="64" rx="12" fill="#0f172a" stroke="#334155" stroke-width="1"/>
    <text x="24" y="40" font-family="ui-monospace, SF Mono, Menlo, monospace" font-size="20" fill="#64748b">$</text>
    <text x="48" y="40" font-family="ui-monospace, SF Mono, Menlo, monospace" font-size="20" fill="#e2e8f0">curl -fsSL https://pacnpal.github.io/ssh-wrappers/install.sh | sh</text>
  </g>

  <!-- footer -->
  <text x="72" y="610" font-family="-apple-system, Segoe UI, system-ui, sans-serif" font-size="14" fill="#64748b">github.com/pacnpal/ssh-wrappers · MIT</text>
</svg>
